<?xml version="1.0" encoding="UTF-8" standalone="no"?>
<!-- Created with Inkscape (http://www.inkscape.org/) -->

<svg
   xmlns:dc="http://purl.org/dc/elements/1.1/"
   xmlns:cc="http://creativecommons.org/ns#"
   xmlns:rdf="http://www.w3.org/1999/02/22-rdf-syntax-ns#"
   xmlns:svg="http://www.w3.org/2000/svg"
   xmlns="http://www.w3.org/2000/svg"
   xmlns:xlink="http://www.w3.org/1999/xlink"
   xmlns:sodipodi="http://sodipodi.sourceforge.net/DTD/sodipodi-0.dtd"
   xmlns:inkscape="http://www.inkscape.org/namespaces/inkscape"
   width="318.69977mm"
   height="251.49603mm"
   viewBox="0 0 318.69977 251.49603"
   version="1.1"
   id="svg8"
   inkscape:version="0.92.1 r15371"
   sodipodi:docname="labelTool.svg">
  <defs
     id="defs2" />
  <sodipodi:namedview
     id="base"
     pagecolor="#ffffff"
     bordercolor="#666666"
     borderopacity="1.0"
     inkscape:pageopacity="0.0"
     inkscape:pageshadow="2"
     inkscape:zoom="0.24748738"
     inkscape:cx="-277.3382"
     inkscape:cy="684.34011"
     inkscape:document-units="mm"
     inkscape:current-layer="layer1"
     showgrid="false"
     inkscape:window-width="1600"
     inkscape:window-height="836"
     inkscape:window-x="1920"
     inkscape:window-y="27"
     inkscape:window-maximized="1"
     fit-margin-top="0"
     fit-margin-left="0"
     fit-margin-right="0"
     fit-margin-bottom="0"
     inkscape:showpageshadow="false" />
  <metadata
     id="metadata5">
    <rdf:RDF>
      <cc:Work
         rdf:about="">
        <dc:format>image/svg+xml</dc:format>
        <dc:type
           rdf:resource="http://purl.org/dc/dcmitype/StillImage" />
        <dc:title></dc:title>
      </cc:Work>
    </rdf:RDF>
  </metadata>
  <g
     inkscape:label="Camada 1"
     inkscape:groupmode="layer"
     id="layer1"
     transform="translate(-272.75748,-13.918096)">
    <rect
       style="opacity:0.52999998;fill:none;stroke:#ffffff;stroke-width:4;stroke-miterlimit:4;stroke-dasharray:none"
       id="rect4496-3"
       width="561.97083"
       height="471.2392"
       x="176.08952"
       y="-109.21645"
       inkscape:export-xdpi="96"
       inkscape:export-ydpi="96" />
    <path
       style="opacity:1;fill:#000000;fill-opacity:0.52941165;stroke:#000000;stroke-width:122.1727829;stroke-miterlimit:4;stroke-dasharray:none"
       d=""
       id="path5175"
       inkscape:connector-curvature="0"
       transform="matrix(0.26458333,0,0,0.26458333,-542.60266,-100.91061)" />
    <g
       id="g4537"
       transform="matrix(0.85605275,0,0,0.74312971,39.378131,67.926703)">
      <path
         inkscape:connector-curvature="0"
         d="m 291.86762,249.61123 c 7.02037,-3.76704 7.5263,-4.06184 -16.4541,9.75202 -0.97498,0.56164 1.90058,-1.21065 2.82986,-1.84931 3.22909,-2.21948 6.14072,-4.5944 8.97505,-7.32012 0.94286,-1.25214 2.004,-2.41866 2.82855,-3.75647 5.99289,-9.72361 9.27727,-21.69639 12.49726,-32.61218 5.29777,-19.31814 10.26442,-38.72906 14.64866,-58.2891 3.50981,-14.68693 5.07775,-29.74408 7.6929,-44.59726 1.24417,-7.06692 3.17489,-15.684383 4.69143,-22.705149 3.07934,-14.064594 6.70898,-28.174168 12.06181,-41.53523 2.75843,-6.885288 6.00849,-12.990083 9.33146,-19.584717 7.06054,-13.709766 15.30696,-26.62226598 24.9275,-38.54841 8.87319,-10.149134 19.59507,-15.201318 31.74427,-21.770401 1.16973,-0.632478 6.05455,-1.32948 7.28355,-1.532888 7.78544,-1.40461 15.29677,0.2302 22.76791,2.404552 6.81442,2.321548 12.36599,6.702175 17.68223,11.505277 5.84226,5.495384 9.41469,12.5824872 12.58907,19.90438299 3.67797,7.58762281 4.80475,15.86810101 5.37675,24.21854301 0.45181,8.885591 0.39021,17.788388 0.49382,26.683217 0.0256,7.717074 -0.1074,15.432545 -0.0615,23.149625 0.0301,5.699078 0.10343,11.397525 0.13837,17.096547 -0.36783,4.979519 -0.99579,9.929161 -1.28275,14.918401 -0.5299,4.91334 0.78716,9.61238 2.06596,14.28038 1.26148,5.32043 3.90252,9.8939 7.37404,13.97385 3.75189,3.84792 7.89082,7.19734 12.22213,10.31142 1.79497,0.95897 3.67875,2.08128 5.68891,2.51237 1.98726,0.42619 3.21516,-0.4683 2.90921,-0.29074 -5.99142,3.47771 -12.09644,6.74366 -18.14467,10.11548 6.28636,-5.65637 10.92411,-13.03499 15.71183,-20.01987 4.55261,-6.87914 8.8751,-13.94295 12.8016,-21.22248 3.03447,-6.13983 6.59993,-11.9775 10.02922,-17.887194 3.33232,-5.713591 7.21227,-11.021227 11.51388,-15.988953 9.17533,-8.307201 20.12041,-19.301791 32.7406,-15.997679 4.21017,1.501529 6.616,4.886736 8.80045,8.645249 2.67382,4.473009 3.37086,9.672258 3.80551,14.804167 0.39165,5.493296 0.39735,11.00673 0.4015,16.51211 0.11918,4.67186 -0.17005,9.35233 0.13638,14.01607 0.4926,4.44968 0.98189,8.89111 1.23218,13.36312 0.1613,4.50524 0.90057,8.95787 1.28511,13.44489 0.46852,5.17891 1.70901,10.10183 3.37636,14.99238 1.44223,4.148 3.31185,7.96386 7.32159,9.85782 3.47315,0.94305 7.10302,0.84914 10.66619,0.8472 4.1629,0.16994 7.60847,0.0286 11.42071,-1.81808 -33.75905,19.25211 -19.44554,13.06922 -13.90713,6.82987 1.967,-2.21593 3.55716,-4.71363 5.1631,-7.20603 2.85643,-4.71202 6.44006,-8.87587 9.68597,-13.29479 2.28229,-3.21831 1.14495,-1.55425 3.40458,-4.99755 0,0 20.89027,-9.45739 20.89027,-9.45739 v 0 c -2.11217,3.5648 -1.01203,1.87143 -3.28153,5.09315 -3.08727,4.5317 -6.78609,8.55642 -9.73346,13.19378 -9.3632,14.76273 -10.32669,13.49653 -30.37285,24.49303 -3.90637,1.21712 -7.88763,1.24044 -11.94602,1.11778 -3.85273,-0.0603 -7.80321,-0.0887 -11.37374,-1.78151 -4.11239,-2.68524 -6.38466,-6.79167 -7.95382,-11.48274 -1.71546,-5.05847 -3.30224,-10.07218 -3.76852,-15.44732 -0.37148,-4.5116 -1.11443,-8.98236 -1.36125,-13.49623 -0.19992,-4.45751 -0.59849,-8.89876 -1.16096,-13.32378 -0.42849,-4.72491 -0.15394,-9.47571 -0.16769,-14.21605 0.009,-5.45102 0.063,-10.9069 -0.26408,-16.350791 -0.40978,-4.761416 -0.89631,-9.612707 -3.43551,-13.751959 -1.97873,-3.175822 -3.88893,-6.147508 -7.7443,-6.995437 -1.8021,-0.196645 -2.26404,-0.403916 -4.10249,0.07033 -0.67954,0.175295 -2.55944,1.152683 -1.96183,0.776189 32.18673,-20.278022 19.73183,-12.541379 13.28085,-7.542851 -4.39804,4.814757 -8.40939,9.925553 -11.76616,15.579207 -3.42238,5.923979 -7.05511,11.728118 -10.1316,17.851802 -3.954,7.38154 -8.33557,14.53206 -12.876,21.54033 -4.83451,6.97818 -9.53856,14.07408 -14.93282,20.61531 -18.13133,10.51136 -18.10214,17.24917 -31.27627,9.00367 -4.40375,-3.28866 -8.57841,-6.8684 -12.41615,-10.84737 -3.65099,-4.36972 -6.52479,-9.19242 -7.94533,-14.82845 -1.35637,-4.88324 -2.92981,-9.83931 -2.40739,-14.98947 0.27215,-4.93642 0.63639,-9.86421 1.28436,-14.76587 0.0359,-5.752063 0.11338,-11.503451 0.15775,-17.255458 0.0668,-7.715244 -0.0315,-15.430021 0.0514,-23.14513 0.13398,-8.865569 0.16426,-17.738751 -0.28622,-26.596412 -0.59746,-8.06747 -1.5662,-16.095634 -5.03002,-23.479591 -3.13069,-6.9872674 -6.50638,-13.8147388 -12.26518,-18.9526942 -5.06668,-4.5991498 -10.51455,-8.6208078 -17.07502,-10.6436718 -7.31186,-1.99479 -14.59732,-3.265191 -22.13077,-1.562262 -9.55556,2.197345 -17.29305,8.000928 9.43668,-7.952726 1.06069,-0.633028 -2.082,1.337879 -3.0706,2.084459 -3.12825,2.362438 -3.90045,3.310826 -6.77924,6.132235 -4.11173,4.857038 -8.2663,9.752634 -11.90019,15.0077886 -5.21084,7.5355092 -9.62002,15.6378884 -14.24964,23.5497674 -3.39628,6.574891 -6.60212,12.429034 -9.42019,19.307003 -5.44764,13.295811 -9.15158,27.353754 -12.34978,41.36617 -1.76441,7.946894 -3.32018,14.52804 -4.72159,22.562002 -2.5971,14.8879 -4.22195,29.96345 -7.59359,44.71113 -4.24925,19.47684 -8.99002,38.82988 -13.98946,58.11582 -1.9998,7.25723 -3.91468,14.60503 -6.63661,21.62373 -0.78151,2.01511 -1.73616,3.95435 -2.59129,5.93748 -0.77822,1.8049 -1.41594,3.67874 -2.30884,5.42643 -0.72674,1.42249 -1.68982,2.70289 -2.53478,4.05434 -9.30902,10.28631 -22.90752,16.90466 -34.56402,23.16636 0,0 18.30879,-14.82849 18.30879,-14.82849 z"
         id="path4523-2"
         style="opacity:1;fill:#000000;fill-opacity:1;stroke:#000000;stroke-width:2.97693706;stroke-miterlimit:4;stroke-dasharray:none" />
      <text
         transform="translate(439.39109,-74.835466)"
         y="-74.835464"
         x="441.52924"
         id="text4503"
         style="font-style:normal;font-weight:normal;font-size:33.79059601px;line-height:1.25;font-family:sans-serif;letter-spacing:0px;word-spacing:0px;fill:#000000;fill-opacity:1;stroke:none;stroke-width:1.05595613"
         xml:space="preserve"><textPath
           id="textPath4530"
           xlink:href="#path4528"><tspan
   id="tspan4501"
   style="font-size:39.4223671px;stroke-width:1.05595613">Label</tspan></textPath></text>
    </g>
    <ellipse
       style="opacity:1;fill:none;fill-opacity:1;fill-rule:nonzero;stroke:none;stroke-width:4;stroke-miterlimit:4;stroke-dasharray:none;stroke-opacity:1"
       id="path4528"
       cx="-39.825275"
       cy="-91.032059"
       rx="65.21376"
       ry="64.144684"
       transform="rotate(-143.21194)" />
  </g>
</svg>
